{
    "asset" : {
        "generator" : "Khronos glTF Blender I/O v0.9.36",
        "version" : "2.0"
    },
    "scene" : 0,
    "scenes" : [
        {
            "name" : "Scene",
            "nodes" : [
                0,
                1,
                2,
                3,
                4,
                5
            ]
        }
    ],
    "nodes" : [
        {
            "translation" : [
                0,
                0.4215555787086487,
                0
            ],
            "name" : "shoes_Cube.001",
            "scale" : [
                0.039712440222501755,
                0.039712440222501755,
                0.039712440222501755
            ],
            "rotation" : [
                0.5,
                0.4999999701976776,
                -0.5000000596046448,
                0.4999999403953552
            ],
            "mesh" : 0
        },
        {
            "translation" : [
                0,
                0.4215555787086487,
                0
            ],
            "name" : "pants_Cube.001",
            "scale" : [
                0.039712440222501755,
                0.039712440222501755,
                0.039712440222501755
            ],
            "rotation" : [
                0.5,
                0.4999999701976776,
                -0.5000000596046448,
                0.4999999403953552
            ],
            "mesh" : 1
        },
        {
            "translation" : [
                0,
                0.4215555787086487,
                0
            ],
            "name" : "char_Cube.002",
            "scale" : [
                0.039712440222501755,
                0.039712440222501755,
                0.039712440222501755
            ],
            "rotation" : [
                0.5,
                0.4999999701976776,
                -0.5000000596046448,
                0.4999999403953552
            ],
            "mesh" : 2
        },
        {
            "translation" : [
                0,
                0.4215555787086487,
                0
            ],
            "name" : "bobbleHatBobble_Cube.001",
            "scale" : [
                0.039712440222501755,
                0.039712440222501755,
                0.039712440222501755
            ],
            "rotation" : [
                0.5,
                0.4999999701976776,
                -0.5000000596046448,
                0.4999999403953552
            ],
            "mesh" : 3
        },
        {
            "translation" : [
                0,
                0.4215555787086487,
                0
            ],
            "name" : "bobbleHat_Cube.001",
            "scale" : [
                0.039712440222501755,
                0.039712440222501755,
                0.039712440222501755
            ],
            "rotation" : [
                0.5,
                0.4999999701976776,
                -0.5000000596046448,
                0.4999999403953552
            ],
            "mesh" : 4
        },
        {
            "translation" : [
                0,
                0.4215555787086487,
                0
            ],
            "name" : "hemd_Cube.002",
            "scale" : [
                0.039712440222501755,
                0.039712440222501755,
                0.039712440222501755
            ],
            "rotation" : [
                0.5,
                0.4999999701976776,
                -0.5000000596046448,
                0.4999999403953552
            ],
            "mesh" : 5
        }
    ],
    "materials" : [
        {
            "pbrMetallicRoughness" : {},
            "name" : "shoeUnderground.001"
        },
        {
            "pbrMetallicRoughness" : {},
            "name" : "shoes.001"
        },
        {
            "pbrMetallicRoughness" : {},
            "name" : "jeans"
        },
        {
            "pbrMetallicRoughness" : {},
            "name" : "skinColor.001"
        },
        {
            "pbrMetallicRoughness" : {},
            "name" : "boobleHeatColor.001"
        },
        {
            "pbrMetallicRoughness" : {},
            "name" : "shirt"
        },
        {
            "pbrMetallicRoughness" : {},
            "name" : "Material.010"
        }
    ],
    "meshes" : [
        {
            "name" : "shoes_Cube.001",
            "primitives" : [
                {
                    "attributes" : {
                        "POSITION" : 0,
                        "TEXCOORD_0" : 1,
                        "NORMAL" : 2
                    },
                    "material" : 0,
                    "indices" : 3
                },
                {
                    "attributes" : {
                        "POSITION" : 4,
                        "TEXCOORD_0" : 5,
                        "NORMAL" : 6
                    },
                    "material" : 1,
                    "indices" : 7
                }
            ]
        },
        {
            "name" : "pants_Cube.001",
            "primitives" : [
                {
                    "attributes" : {
                        "POSITION" : 8,
                        "TEXCOORD_0" : 9,
                        "NORMAL" : 10
                    },
                    "material" : 2,
                    "indices" : 11
                }
            ]
        },
        {
            "name" : "char_Cube.002",
            "primitives" : [
                {
                    "attributes" : {
                        "POSITION" : 12,
                        "TEXCOORD_0" : 13,
                        "NORMAL" : 14
                    },
                    "material" : 3,
                    "indices" : 15
                }
            ]
        },
        {
            "name" : "bobbleHatBobble_Cube.001",
            "primitives" : [
                {
                    "attributes" : {
                        "POSITION" : 16,
                        "TEXCOORD_0" : 17,
                        "NORMAL" : 18
                    },
                    "material" : 4,
                    "indices" : 19
                }
            ]
        },
        {
            "name" : "bobbleHat_Cube.001",
            "primitives" : [
                {
                    "attributes" : {
                        "POSITION" : 20,
                        "TEXCOORD_0" : 21,
                        "NORMAL" : 22
                    },
                    "material" : 4,
                    "indices" : 23
                }
            ]
        },
        {
            "name" : "hemd_Cube.002",
            "primitives" : [
                {
                    "attributes" : {
                        "POSITION" : 24,
                        "TEXCOORD_0" : 25,
                        "NORMAL" : 26
                    },
                    "material" : 5,
                    "indices" : 27
                },
                {
                    "attributes" : {
                        "POSITION" : 28,
                        "TEXCOORD_0" : 29,
                        "NORMAL" : 30
                    },
                    "material" : 6,
                    "indices" : 31
                }
            ]
        }
    ],
    "accessors" : [
        {
            "componentType" : 5126,
            "count" : 172,
            "min" : [
                -1.3136420249938965,
                -0.18346400558948517,
                10.389002799987793
            ],
            "bufferView" : 0,
            "max" : [
                1.3136420249938965,
                1.3701260089874268,
                10.56246280670166
            ],
            "type" : "VEC3"
        },
        {
            "componentType" : 5126,
            "count" : 172,
            "bufferView" : 1,
            "type" : "VEC2"
        },
        {
            "componentType" : 5126,
            "count" : 172,
            "bufferView" : 2,
            "type" : "VEC3"
        },
        {
            "componentType" : 5123,
            "count" : 264,
            "bufferView" : 3,
            "type" : "SCALAR"
        },
        {
            "componentType" : 5126,
            "count" : 320,
            "min" : [
                -1.32122802734375,
                -0.2386000007390976,
                9.82757568359375
            ],
            "bufferView" : 4,
            "max" : [
                1.32122802734375,
                1.378330945968628,
                10.480460166931152
            ],
            "type" : "VEC3"
        },
        {
            "componentType" : 5126,
            "count" : 320,
            "bufferView" : 5,
            "type" : "VEC2"
        },
        {
            "componentType" : 5126,
            "count" : 320,
            "bufferView" : 6,
            "type" : "VEC3"
        },
        {
            "componentType" : 5123,
            "count" : 480,
            "bufferView" : 7,
            "type" : "SCALAR"
        },
        {
            "componentType" : 5126,
            "count" : 356,
            "min" : [
                -1.2807990312576294,
                -0.6714019775390625,
                5.039348125457764
            ],
            "bufferView" : 8,
            "max" : [
                1.2807990312576294,
                0.8396009802818298,
                9.99554443359375
            ],
            "type" : "VEC3"
        },
        {
            "componentType" : 5126,
            "count" : 356,
            "bufferView" : 9,
            "type" : "VEC2"
        },
        {
            "componentType" : 5126,
            "count" : 356,
            "bufferView" : 10,
            "type" : "VEC3"
        },
        {
            "componentType" : 5123,
            "count" : 540,
            "bufferView" : 11,
            "type" : "SCALAR"
        },
        {
            "componentType" : 5126,
            "count" : 2792,
            "min" : [
                -5.437737941741943,
                -1.1204440593719482,
                -1.3825219869613647
            ],
            "bufferView" : 12,
            "max" : [
                5.437737941741943,
                1.3634049892425537,
                10.505180358886719
            ],
            "type" : "VEC3"
        },
        {
            "componentType" : 5126,
            "count" : 2792,
            "bufferView" : 13,
            "type" : "VEC2"
        },
        {
            "componentType" : 5126,
            "count" : 2792,
            "bufferView" : 14,
            "type" : "VEC3"
        },
        {
            "componentType" : 5123,
            "count" : 4272,
            "bufferView" : 15,
            "type" : "SCALAR"
        },
        {
            "componentType" : 5126,
            "count" : 96,
            "min" : [
                -0.41975298523902893,
                -1.4309990406036377,
                -1.5623940229415894
            ],
            "bufferView" : 16,
            "max" : [
                0.41975298523902893,
                -0.6361209750175476,
                -0.767516016960144
            ],
            "type" : "VEC3"
        },
        {
            "componentType" : 5126,
            "count" : 96,
            "bufferView" : 17,
            "type" : "VEC2"
        },
        {
            "componentType" : 5126,
            "count" : 96,
            "bufferView" : 18,
            "type" : "VEC3"
        },
        {
            "componentType" : 5123,
            "count" : 144,
            "bufferView" : 19,
            "type" : "SCALAR"
        },
        {
            "componentType" : 5126,
            "count" : 264,
            "min" : [
                -1.02128005027771,
                -1.1902650594711304,
                -1.45147705078125
            ],
            "bufferView" : 20,
            "max" : [
                1.02128005027771,
                1.1996020078659058,
                0.34108999371528625
            ],
            "type" : "VEC3"
        },
        {
            "componentType" : 5126,
            "count" : 264,
            "bufferView" : 21,
            "type" : "VEC2"
        },
        {
            "componentType" : 5126,
            "count" : 264,
            "bufferView" : 22,
            "type" : "VEC3"
        },
        {
            "componentType" : 5123,
            "count" : 396,
            "bufferView" : 23,
            "type" : "SCALAR"
        },
        {
            "componentType" : 5126,
            "count" : 2316,
            "min" : [
                -4.113656044006348,
                -0.8276000022888184,
                1.3168749809265137
            ],
            "bufferView" : 24,
            "max" : [
                4.113656044006348,
                0.9895300269126892,
                5.09873104095459
            ],
            "type" : "VEC3"
        },
        {
            "componentType" : 5126,
            "count" : 2316,
            "bufferView" : 25,
            "type" : "VEC2"
        },
        {
            "componentType" : 5126,
            "count" : 2316,
            "bufferView" : 26,
            "type" : "VEC3"
        },
        {
            "componentType" : 5123,
            "count" : 3576,
            "bufferView" : 27,
            "type" : "SCALAR"
        },
        {
            "componentType" : 5126,
            "count" : 5540,
            "min" : [
                -4.49774694442749,
                -0.9165679812431335,
                1.3168749809265137
            ],
            "bufferView" : 28,
            "max" : [
                4.49774694442749,
                1.034512996673584,
                5.0882439613342285
            ],
            "type" : "VEC3"
        },
        {
            "componentType" : 5126,
            "count" : 5540,
            "bufferView" : 29,
            "type" : "VEC2"
        },
        {
            "componentType" : 5126,
            "count" : 5540,
            "bufferView" : 30,
            "type" : "VEC3"
        },
        {
            "componentType" : 5123,
            "count" : 11520,
            "bufferView" : 31,
            "type" : "SCALAR"
        }
    ],
    "bufferViews" : [
        {
            "byteLength" : 2064,
            "byteOffset" : 0,
            "buffer" : 0
        },
        {
            "byteLength" : 1376,
            "byteOffset" : 2064,
            "buffer" : 0
        },
        {
            "byteLength" : 2064,
            "byteOffset" : 3440,
            "buffer" : 0
        },
        {
            "byteLength" : 528,
            "byteOffset" : 5504,
            "buffer" : 0
        },
        {
            "byteLength" : 3840,
            "byteOffset" : 6032,
            "buffer" : 0
        },
        {
            "byteLength" : 2560,
            "byteOffset" : 9872,
            "buffer" : 0
        },
        {
            "byteLength" : 3840,
            "byteOffset" : 12432,
            "buffer" : 0
        },
        {
            "byteLength" : 960,
            "byteOffset" : 16272,
            "buffer" : 0
        },
        {
            "byteLength" : 4272,
            "byteOffset" : 17232,
            "buffer" : 0
        },
        {
            "byteLength" : 2848,
            "byteOffset" : 21504,
            "buffer" : 0
        },
        {
            "byteLength" : 4272,
            "byteOffset" : 24352,
            "buffer" : 0
        },
        {
            "byteLength" : 1080,
            "byteOffset" : 28624,
            "buffer" : 0
        },
        {
            "byteLength" : 33504,
            "byteOffset" : 29704,
            "buffer" : 0
        },
        {
            "byteLength" : 22336,
            "byteOffset" : 63208,
            "buffer" : 0
        },
        {
            "byteLength" : 33504,
            "byteOffset" : 85544,
            "buffer" : 0
        },
        {
            "byteLength" : 8544,
            "byteOffset" : 119048,
            "buffer" : 0
        },
        {
            "byteLength" : 1152,
            "byteOffset" : 127592,
            "buffer" : 0
        },
        {
            "byteLength" : 768,
            "byteOffset" : 128744,
            "buffer" : 0
        },
        {
            "byteLength" : 1152,
            "byteOffset" : 129512,
            "buffer" : 0
        },
        {
            "byteLength" : 288,
            "byteOffset" : 130664,
            "buffer" : 0
        },
        {
            "byteLength" : 3168,
            "byteOffset" : 130952,
            "buffer" : 0
        },
        {
            "byteLength" : 2112,
            "byteOffset" : 134120,
            "buffer" : 0
        },
        {
            "byteLength" : 3168,
            "byteOffset" : 136232,
            "buffer" : 0
        },
        {
            "byteLength" : 792,
            "byteOffset" : 139400,
            "buffer" : 0
        },
        {
            "byteLength" : 27792,
            "byteOffset" : 140192,
            "buffer" : 0
        },
        {
            "byteLength" : 18528,
            "byteOffset" : 167984,
            "buffer" : 0
        },
        {
            "byteLength" : 27792,
            "byteOffset" : 186512,
            "buffer" : 0
        },
        {
            "byteLength" : 7152,
            "byteOffset" : 214304,
            "buffer" : 0
        },
        {
            "byteLength" : 66480,
            "byteOffset" : 221456,
            "buffer" : 0
        },
        {
            "byteLength" : 44320,
            "byteOffset" : 287936,
            "buffer" : 0
        },
        {
            "byteLength" : 66480,
            "byteOffset" : 332256,
            "buffer" : 0
        },
        {
            "byteLength" : 23040,
            "byteOffset" : 398736,
            "buffer" : 0
        }
    ],
    "buffers" : [
        {
            "byteLength" : 421776,
            "uri" : "data:application/octet-stream;base64,"
        }
    ]
}
