# Blender v2.79 (sub 0) OBJ File: 'Home.blend'
# www.blender.org
mtllib gras.mtl
o Plane.001
v -1.000000 0.000000 1.000000
v 1.000000 0.000000 1.000000
v -1.000000 0.000000 -1.000000
v 1.000000 0.000000 -1.000000
v -1.000000 0.000000 -1.000000
v -1.000000 0.000000 1.000000
v 1.000000 0.000000 1.000000
v 1.000000 0.000000 -1.000000
v -1.000000 0.060000 -1.000000
v -1.000000 0.060000 1.000000
v 1.000000 0.060000 1.000000
v 1.000000 0.060000 -1.000000
vn 0.0000 -1.0000 0.0000
vn 1.0000 0.0000 0.0000
vn 0.0000 0.0000 1.0000
vn 0.0000 1.0000 0.0000
vn -1.0000 0.0000 0.0000
vn 0.0000 0.0000 -1.0000
usemtl gras
s off
f 1//1 3//1 4//1 2//1
f 7//2 8//2 12//2 11//2
f 2//3 4//3 8//3 7//3
f 3//3 1//3 6//3 5//3
f 4//3 3//3 5//3 8//3
f 1//3 2//3 7//3 6//3
f 10//4 11//4 12//4 9//4
f 5//5 6//5 10//5 9//5
f 8//6 5//6 9//6 12//6
f 6//3 7//3 11//3 10//3
